<svg width="1616" height="1104" viewBox="0 0 1616 1104" fill="none" xmlns="http://www.w3.org/2000/svg">
<path d="M193.169 728.594H84.0868C69.2837 728.594 57.1499 717.082 57.1499 703.037V617.733C57.1499 603.689 69.2837 592.177 84.0868 592.177H193.169C207.972 592.177 220.106 603.689 220.106 617.733V703.037C220.106 717.082 207.972 728.594 193.169 728.594Z" fill="#1A1A1A"/>
<path d="M861.011 472.682H222.169C201.541 472.682 184.554 456.681 184.554 436.995V38.1047C184.554 18.5343 201.42 2.41748 222.169 2.41748H861.132C881.759 2.41748 898.747 18.4191 898.747 38.1047V436.995C898.625 456.566 881.759 472.682 861.011 472.682Z" fill="#F5F5F5"/>
<path d="M1578.48 890.798H1074.44C1053.82 890.798 1036.83 874.796 1036.83 855.111V484.194C1036.83 464.624 1053.7 448.507 1074.44 448.507H1578.36C1598.99 448.507 1615.97 464.509 1615.97 484.194V855.111C1616.09 874.681 1599.11 890.798 1578.48 890.798Z" fill="#3552FF"/>
<path d="M1546.57 786.269C1546.57 786.269 1541.35 784.082 1497.79 762.669C1454.23 741.257 1432.27 735.041 1416.13 733.544C1399.99 732.048 1377.42 736.307 1364.2 741.487C1350.97 746.668 1307.65 761.979 1288.6 764.511C1269.55 766.929 1246.99 759.331 1237.64 755.647C1228.3 751.963 1158.77 711.786 1158.77 711.786C1158.77 711.786 1143.48 872.033 1137.54 923.837H1485.9C1519.63 923.837 1547.3 897.59 1547.3 865.587V787.881C1546.81 786.96 1546.57 786.269 1546.57 786.269Z" fill="#1A1A1A"/>
<path d="M742.586 554.187C742.586 554.187 687.862 564.318 649.641 581.01C611.298 597.703 576.838 616.928 576.838 616.928C576.838 616.928 613.118 530.473 620.035 512.514C626.951 494.555 640.783 473.143 640.783 473.143C640.783 473.143 622.947 451.385 622.704 440.679C622.704 440.679 586.303 436.304 561.671 419.727C561.671 419.727 543.835 412.59 540.68 405.798C540.68 405.798 504.279 380.126 506.827 357.332C506.827 357.332 481.346 395.667 451.012 472.567C420.677 549.352 402.962 580.435 416.916 664.817C430.87 749.2 507.312 771.764 523.329 775.333C539.345 778.901 567.738 786.499 596.617 781.319C625.495 776.138 652.31 764.972 652.31 764.972L643.938 826.561L612.633 1099.86H1027.12L1010.98 946.055C1010.98 946.055 1027.73 986.002 1054.54 1001.2C1081.36 1016.39 1115.94 1018.24 1146.88 1002.46C1177.82 986.693 1192.99 956.071 1195.9 932.817C1198.81 909.562 1197.84 877.674 1187.77 835.08C1177.7 792.485 1145.67 662.285 1145.67 662.285L1050.54 619.115C1050.54 619.115 1017.29 571.57 966.089 560.519C914.885 549.467 914.885 549.467 914.885 549.467L742.586 554.187Z" fill="#3552FF"/>
<path d="M1144.46 665.508C1144.46 665.508 1147.73 636.038 1133.05 614.28C1118.37 592.522 1107.08 580.78 1103.32 574.448C1099.56 568.117 1101.26 540.028 1098.59 529.321C1096.04 518.615 1092.4 502.268 1072.38 505.492C1052.36 508.715 1046.9 533.581 1050.06 549.698C1053.21 565.93 1065.34 603.804 1064.74 609.099C1064.01 614.28 1032.1 633.39 1015.11 639.376C998.123 645.362 965.604 656.299 957.11 668.732C948.617 681.165 951.529 697.396 967.91 698.893C967.91 698.893 946.918 709.369 951.165 724.104C955.412 738.84 969.972 736.998 969.972 736.998C969.972 736.998 966.453 758.64 989.629 761.403C1012.93 764.166 1057.21 748.97 1072.5 741.142C1087.79 733.314 1114.61 720.075 1126.26 703.958C1137.9 687.842 1145.06 668.962 1144.46 665.508Z" fill="#F5F5F5"/>
<path d="M753.87 412.935C753.87 412.935 718.803 406.603 717.833 435.729C716.862 464.854 748.167 464.624 757.389 458.638C757.389 458.638 756.782 526.674 828.007 525.637C899.232 524.601 901.052 468.308 901.052 468.308V459.904C901.052 459.904 933.207 469.344 938.91 449.313C944.613 429.282 940.972 421.224 932.722 416.849C924.471 412.475 903.601 413.856 903.601 413.856V406.949C903.601 406.949 879.212 381.968 840.626 367.232C802.041 352.497 782.384 350.425 782.384 350.425C782.384 350.425 766.853 387.954 756.054 395.897L753.87 412.935Z" fill="#F5F5F5"/>
<path d="M778.866 499.16V518.155L742.586 554.187L768.067 687.151L829.949 602.653L891.952 687.151L916.826 551.424L881.032 517.234L881.274 500.887L778.866 499.16Z" fill="#F5F5F5"/>
<path d="M1429.77 627.549C1449.76 608.577 1449.76 577.818 1429.77 558.846C1409.77 539.874 1377.35 539.874 1357.35 558.846C1337.36 577.818 1337.36 608.577 1357.35 627.549C1377.35 646.52 1409.77 646.521 1429.77 627.549Z" fill="#F5F5F5"/>
<path d="M857.007 1071.19H156.525C135.898 1071.19 118.911 1055.19 118.911 1035.5V879.861C118.911 860.291 135.777 844.174 156.525 844.174H856.885C877.513 844.174 894.5 860.176 894.5 879.861V1035.5C894.621 1055.19 877.634 1071.19 857.007 1071.19Z" fill="#F5F5F5"/>
<path d="M271.675 957.683C271.675 979.21 253.231 996.708 230.541 996.708C207.851 996.708 189.408 979.21 189.408 957.683C189.408 936.04 207.851 918.542 230.541 918.542C253.231 918.657 271.675 936.155 271.675 957.683Z" fill="#1A1A1A"/>
<path d="M827.886 2.41748H255.294C216.345 2.41748 184.433 32.694 184.433 69.6475V114.89H898.626V69.6475C898.626 32.694 866.835 2.41748 827.886 2.41748Z" fill="#1A1A1A"/>
<path d="M744.648 409.136C744.648 409.136 738.824 377.363 739.188 368.153C739.552 359.059 746.59 333.733 754.355 330.049C762.121 326.365 764.79 325.905 764.79 325.905C764.79 325.905 782.506 298.966 823.639 298.736C864.772 298.506 894.864 313.932 907.119 334.654C919.374 355.375 916.826 386.918 916.826 396.243C916.826 405.567 914.521 411.899 914.521 411.899L903.722 412.475L902.872 406.834C902.872 406.834 868.17 374.6 829.827 363.088C791.363 351.576 782.506 350.31 782.506 350.31C782.506 350.31 770.251 384.385 756.175 395.782L755.569 412.475L744.648 409.136Z" fill="#1A1A1A"/>
<path d="M634.959 399.811C634.959 399.811 659.47 412.014 670.269 427.67C680.946 443.442 683.737 480.28 662.26 481.662C640.784 483.043 631.198 459.444 628.528 452.652C625.859 445.859 624.888 437.456 608.144 432.045C591.521 426.75 554.27 421.684 547.475 411.093C540.68 400.617 529.517 394.286 530.002 360.095C530.002 360.095 518.475 324.638 535.584 309.673C552.814 294.707 572.349 295.168 607.537 296.088C642.604 297.009 667.842 280.432 683.98 273.985C700.118 267.539 725.234 254.876 739.188 261.898C753.142 268.92 743.071 287.339 743.071 287.339C743.071 287.339 755.447 291.484 759.33 301.154C763.092 310.824 748.895 329.358 748.895 329.358C748.895 329.358 757.146 331.43 759.33 344.554C761.514 357.678 741.494 369.65 723.778 374.255C706.063 378.86 662.503 384.04 653.281 384.731C643.938 385.422 629.256 391.293 634.959 399.811Z" fill="#F5F5F5"/>
<path d="M167.325 616.813C162.957 609.675 155.676 609.675 151.308 616.813L117.455 671.84C113.087 678.977 116.606 684.849 125.342 684.849H193.291C202.027 684.849 205.546 678.977 201.178 671.84L167.325 616.813Z" fill="#3552FF"/>
<path d="M844.266 59.7473C844.266 72.9861 832.982 83.5771 819.149 83.5771C805.195 83.5771 794.032 72.8709 794.032 59.7473C794.032 46.5085 805.317 35.9174 819.149 35.9174C832.982 35.8023 844.266 46.5085 844.266 59.7473Z" fill="#3552FF"/>
<path d="M976.281 125.365C990.622 125.365 1002.25 114.336 1002.25 100.73C1002.25 87.1239 990.622 76.0941 976.281 76.0941C961.94 76.0941 950.315 87.1239 950.315 100.73C950.315 114.336 961.94 125.365 976.281 125.365Z" fill="#3552FF"/>
<path d="M1589.16 314.508C1589.16 328.092 1577.51 339.143 1563.19 339.143C1548.87 339.143 1537.22 328.092 1537.22 314.508C1537.22 300.923 1548.87 289.872 1563.19 289.872C1577.63 289.872 1589.16 300.923 1589.16 314.508Z" fill="#3552FF"/>
<path d="M751.631 76.6334C761.44 67.3274 761.44 52.2393 751.631 42.9333C741.823 33.6273 725.92 33.6273 716.111 42.9333C706.303 52.2393 706.303 67.3274 716.111 76.6334C725.92 85.9395 741.823 85.9395 751.631 76.6334Z" fill="#CCCCCC"/>
<path d="M658.472 81.7679C671.304 76.7694 677.436 62.8474 672.168 50.6723C666.899 38.4972 652.226 32.6795 639.393 37.6779C626.56 42.6764 620.428 56.5984 625.697 68.7735C630.965 80.9486 645.639 86.7664 658.472 81.7679Z" fill="#F5F5F5"/>
<path d="M524.784 341.791C524.784 341.791 509.01 344.554 506.826 357.447C504.642 370.341 528.91 398.66 535.219 401.653H539.588C539.588 401.653 527.332 375.406 531.337 361.246L524.784 341.791Z" fill="#1A1A1A"/>
<path d="M576.96 425.944C576.96 425.944 593.098 426.174 604.018 430.548C614.939 434.923 619.792 437.916 619.792 437.916C619.792 437.916 597.83 439.528 576.96 425.944Z" fill="#1A1A1A"/>
<path d="M645.758 386.227C645.758 386.227 632.532 390.256 633.867 397.164C633.867 397.164 656.921 411.899 661.289 416.274C665.657 420.648 668.812 423.641 668.812 423.641C668.812 423.641 669.176 403.61 645.758 386.227Z" fill="#1A1A1A"/>
<path d="M1269.19 232.197C1283.8 232.197 1295.64 220.961 1295.64 207.101C1295.64 193.24 1283.8 182.005 1269.19 182.005C1254.58 182.005 1242.74 193.24 1242.74 207.101C1242.74 220.961 1254.58 232.197 1269.19 232.197Z" fill="#1A1A1A"/>
<path d="M903.722 412.475L914.521 411.899C914.521 411.899 916.826 405.567 916.826 396.243C916.826 386.918 919.374 355.375 907.119 334.654C896.805 317.271 873.873 303.571 842.325 299.772C863.559 308.521 886.249 322.221 881.638 339.834C874.843 365.621 779.593 348.468 779.593 348.468L782.02 351.691C782.384 350.77 782.505 350.31 782.505 350.31C782.505 350.31 791.363 351.576 829.827 363.088C868.291 374.6 902.872 406.834 902.872 406.834L903.722 412.475Z" fill="#F5F5F5"/>
<path d="M1547.3 789.953C1546.93 789.953 1546.45 789.838 1546.08 789.722L1457.14 746.553C1435.91 736.192 1400.36 733.774 1377.79 741.027L1311.05 762.439C1287.27 770.037 1250.5 766.353 1228.91 754.266L1157.44 713.859C1156.22 713.168 1155.86 711.671 1156.59 710.52C1157.32 709.369 1158.89 709.024 1160.11 709.714L1231.58 750.121C1251.96 761.633 1286.91 765.202 1309.47 757.949L1376.21 736.537C1399.87 728.939 1437.24 731.472 1459.57 742.293L1548.51 785.463C1549.72 786.039 1550.33 787.535 1549.6 788.686C1549.12 789.492 1548.14 789.953 1547.3 789.953Z" fill="black"/>
<path d="M1377.67 657.795C1348.06 657.795 1323.91 635.001 1323.91 606.797C1323.91 578.708 1348.06 555.799 1377.67 555.799C1407.27 555.799 1431.3 578.708 1431.3 606.797C1431.3 635.001 1407.27 657.795 1377.67 657.795ZM1377.67 560.749C1350.85 560.749 1329.01 581.471 1329.01 606.797C1329.01 632.239 1350.85 652.845 1377.67 652.845C1404.48 652.845 1426.2 632.123 1426.2 606.797C1426.2 581.471 1404.36 560.749 1377.67 560.749Z" fill="black"/>
<path d="M891.952 689.568C891.103 689.568 890.375 689.223 889.89 688.532L829.949 606.797L770.129 688.532C769.523 689.338 768.552 689.799 767.46 689.568C766.489 689.338 765.64 688.648 765.519 687.611L738.703 554.648C738.582 553.842 738.824 553.036 739.431 552.461L777.167 516.428C777.774 515.852 778.502 515.622 779.351 515.737C780.079 515.852 780.807 516.313 781.293 516.888L830.07 597.588L879.212 515.968C879.576 515.277 880.304 514.816 881.153 514.816C882.003 514.701 882.731 514.931 883.338 515.507L918.889 549.698C919.496 550.273 919.739 551.079 919.618 551.77L894.865 687.496C894.743 688.417 893.894 689.223 892.923 689.453C892.317 689.569 892.195 689.568 891.952 689.568ZM743.92 554.993L769.401 681.05L826.915 602.538L778.38 522.184L743.92 554.993ZM832.982 602.423L890.618 680.934L914.157 552.23L881.881 521.263L832.982 602.423Z" fill="black"/>
<path d="M844.752 487.533C838.685 487.533 833.953 486.497 833.589 486.382C832.254 486.036 831.405 484.77 831.647 483.504C832.011 482.237 833.346 481.431 834.681 481.662C834.802 481.662 851.304 485.23 861.618 478.438C866.107 475.445 868.898 470.84 869.626 464.624C869.747 463.243 871.082 462.322 872.538 462.552C873.994 462.667 874.965 463.933 874.722 465.315C873.751 472.913 870.232 478.784 864.53 482.583C858.463 486.497 850.94 487.533 844.752 487.533Z" fill="black"/>
<path d="M575.988 785.003C554.148 785.003 535.34 781.204 517.989 776.484C453.923 759.216 415.095 707.067 408.664 629.706C404.175 574.564 425.651 520.457 447.249 474.87C455.5 457.487 461.567 443.212 467.391 429.397C478.069 403.956 487.412 381.853 506.462 350.886C507.19 349.734 508.767 349.389 509.981 349.965C511.194 350.655 511.558 352.152 510.952 353.303C492.023 383.925 482.801 405.798 472.124 431.124C466.299 444.939 460.232 459.329 451.982 476.827C430.626 521.839 409.392 575.254 413.76 629.361C419.948 704.649 457.442 755.302 519.324 771.879C553.541 781.089 593.218 786.73 650.975 765.893C652.31 765.432 653.766 766.008 654.251 767.274C654.736 768.541 654.13 769.922 652.795 770.383C623.067 781.204 598.072 785.003 575.988 785.003Z" fill="black"/>
<path d="M568.83 653.536C567.01 653.305 566.039 652.039 566.282 650.773C571.864 615.316 586.06 584.464 592.248 571.34C593.34 569.038 594.19 567.196 594.675 565.929L616.152 515.162C621.855 501.693 628.771 489.375 636.172 476.251L638.599 471.992C639.206 470.84 640.783 470.38 641.997 470.956C643.21 471.531 643.695 473.028 643.089 474.179L640.662 478.438C633.382 491.447 626.465 503.65 620.884 516.888L599.407 567.771C598.801 569.038 597.951 570.995 596.859 573.297C590.307 587.342 576.717 616.582 571.257 651.463C571.136 652.615 570.044 653.536 568.83 653.536Z" fill="black"/>
<path d="M11.7734 227.362C17.9616 227.362 22.9365 222.642 22.9365 216.771C22.9365 210.9 17.9616 206.18 11.7734 206.18C5.58519 206.18 0.610352 210.9 0.610352 216.771C0.610352 222.642 5.58519 227.362 11.7734 227.362Z" fill="#1A1A1A"/>
<path d="M98.2834 227.937C104.714 227.937 110.053 222.987 110.053 216.771C110.053 210.669 104.836 205.604 98.2834 205.604C91.8525 205.604 86.5137 210.554 86.5137 216.771C86.5137 222.987 91.7312 227.937 98.2834 227.937Z" fill="#1A1A1A"/>
<path d="M184.797 227.132C190.742 227.132 195.596 222.527 195.596 216.886C195.596 211.245 190.742 206.64 184.797 206.64C178.851 206.64 173.998 211.245 173.998 216.886C173.998 222.527 178.851 227.132 184.797 227.132Z" fill="#1A1A1A"/>
<path d="M11.7697 310.018C18.2006 310.018 23.5395 305.068 23.5395 298.851C23.5395 292.75 18.322 287.685 11.7697 287.685C5.33885 287.685 0 292.635 0 298.851C0 305.068 5.21751 310.018 11.7697 310.018Z" fill="#1A1A1A"/>
<path d="M98.2834 310.478C105.052 310.478 110.538 305.273 110.538 298.851C110.538 292.43 105.052 287.224 98.2834 287.224C91.5151 287.224 86.0283 292.43 86.0283 298.851C86.0283 305.273 91.5151 310.478 98.2834 310.478Z" fill="#1A1A1A"/>
<path d="M184.797 309.673C191.096 309.673 196.203 304.828 196.203 298.851C196.203 292.875 191.096 288.03 184.797 288.03C178.498 288.03 173.391 292.875 173.391 298.851C173.391 304.828 178.498 309.673 184.797 309.673Z" fill="#1A1A1A"/>
<path d="M11.77 391.293C17.7156 391.293 22.5691 386.688 22.5691 381.047C22.5691 375.406 17.7156 370.801 11.77 370.801C5.82448 370.801 0.970976 375.406 0.970976 381.047C0.849639 386.688 5.70314 391.293 11.77 391.293Z" fill="#1A1A1A"/>
<path d="M98.2829 391.868C104.592 391.868 109.689 387.033 109.689 381.047C109.689 375.061 104.592 370.226 98.2829 370.226C91.9734 370.226 86.8772 375.061 86.8772 381.047C86.8772 387.033 91.9734 391.868 98.2829 391.868Z" fill="#1A1A1A"/>
<path d="M184.797 391.178C190.743 391.178 195.475 386.688 195.475 381.047C195.475 375.521 190.743 370.916 184.797 370.916C178.852 370.916 174.119 375.406 174.119 381.047C174.119 386.573 178.852 391.178 184.797 391.178Z" fill="#1A1A1A"/>
<path d="M1507.86 1104H194.019C192.563 1104 191.471 1102.96 191.471 1101.58C191.471 1100.2 192.563 1099.16 194.019 1099.16H1507.86C1509.32 1099.16 1510.41 1100.2 1510.41 1101.58C1510.41 1102.96 1509.32 1104 1507.86 1104Z" fill="black"/>
<path d="M793.911 413.165C795.974 412.82 797.309 413.741 797.915 420.648C798.522 428.476 796.459 429.743 794.639 429.743C792.819 429.627 790.999 427.325 790.999 421.684C790.999 416.043 791.242 413.626 793.911 413.165Z" fill="black"/>
<path d="M744.041 464.048C743.435 464.048 742.828 464.048 742.221 464.048C734.456 463.588 727.297 460.249 722.201 454.724C716.983 449.198 714.435 442.06 714.92 434.693C715.406 427.325 718.925 420.533 724.749 415.698C730.573 410.748 737.975 408.33 745.862 408.791C748.895 409.021 751.928 409.597 754.84 410.748C756.175 411.208 756.782 412.705 756.297 413.856C755.811 415.122 754.234 415.698 753.02 415.238C750.594 414.317 748.167 413.856 745.619 413.626C739.188 413.165 733 415.238 728.146 419.267C723.293 423.296 720.502 428.937 720.017 434.923C719.653 441.024 721.715 446.895 725.962 451.5C730.209 456.105 736.155 458.753 742.464 459.213C746.832 459.444 751.2 458.638 755.083 456.681C756.297 456.105 757.874 456.566 758.481 457.717C759.087 458.868 758.602 460.364 757.389 460.94C753.263 463.012 748.652 464.048 744.041 464.048Z" fill="black"/>
<path d="M738.217 451.615C737.489 451.615 736.639 451.27 736.154 450.694C735.305 449.658 735.547 448.162 736.639 447.241L751.928 436.074L734.819 423.987C733.727 423.181 733.485 421.684 734.334 420.648C735.183 419.612 736.761 419.382 737.853 420.188L757.752 434.117C758.359 434.578 758.723 435.268 758.844 436.074C758.844 436.88 758.48 437.571 757.873 438.031L739.915 451.155C739.309 451.5 738.702 451.615 738.217 451.615Z" fill="black"/>
<path d="M916.098 464.048C911.366 464.048 906.755 463.012 902.63 460.94C901.416 460.365 900.931 458.868 901.538 457.717C902.144 456.566 903.722 456.105 904.935 456.681C908.818 458.638 913.186 459.444 917.554 459.213C923.985 458.868 929.809 456.105 934.056 451.5C938.303 446.896 940.487 441.024 940.002 434.923C939.152 422.375 927.504 412.82 914.4 413.511C911.609 413.626 909.061 414.317 906.513 415.238C905.178 415.813 903.722 415.238 903.115 413.971C902.508 412.705 903.115 411.324 904.45 410.748C907.483 409.482 910.759 408.791 914.036 408.561C930.173 407.525 944.006 419.267 944.976 434.463C945.947 449.658 933.692 462.897 917.676 463.818C917.312 464.048 916.705 464.048 916.098 464.048Z" fill="black"/>
<path d="M921.922 451.615C921.316 451.615 920.83 451.5 920.345 451.155L902.387 438.031C901.78 437.571 901.416 436.88 901.416 436.074C901.416 435.268 901.78 434.578 902.508 434.117L922.408 420.188C923.5 419.382 925.199 419.612 925.927 420.648C926.776 421.684 926.533 423.296 925.441 423.987L908.333 436.074L923.621 447.241C924.713 448.047 924.956 449.543 924.107 450.694C923.379 451.27 922.651 451.615 921.922 451.615Z" fill="black"/>
<path d="M1098.59 1015.47C1066.44 1015.47 1031.61 1000.28 1008.68 946.976C1008.19 945.71 1008.8 944.329 1010.14 943.868C1011.47 943.408 1012.93 943.983 1013.41 945.25C1037.07 1000.28 1076.02 1020.88 1129.29 1006.38C1218.84 981.973 1194.2 874.221 1186.07 838.879C1174.3 787.19 1142.27 659.062 1141.91 657.68C1141.54 656.414 1142.39 655.032 1143.85 654.802C1145.18 654.457 1146.64 655.263 1146.88 656.644C1147.25 657.91 1179.28 786.154 1191.05 837.843C1199.42 874.336 1224.78 985.427 1130.62 1011.1C1120.67 1013.63 1109.87 1015.47 1098.59 1015.47Z" fill="black"/>
<path d="M834.923 527.94H824.731C811.869 527.94 793.547 525.407 778.865 513.55C767.581 504.455 760.179 489.72 756.054 468.653C753.384 454.724 752.778 410.633 753.02 396.243C753.02 394.976 754.234 393.825 755.568 393.825C757.025 393.825 758.117 394.976 758.117 396.243C757.874 411.784 758.602 454.724 761.029 467.617C764.911 487.533 771.706 501.347 782.02 509.751C795.488 520.687 812.597 522.99 824.609 522.99H834.802C846.814 522.99 863.923 520.687 877.391 509.751C887.705 501.347 894.621 487.533 898.504 467.617C901.173 453.688 901.295 418.921 901.052 406.719C901.052 405.337 902.144 404.301 903.6 404.301C905.299 404.301 906.148 405.337 906.148 406.719C906.391 419.036 906.27 454.263 903.479 468.538C899.353 489.605 891.952 504.34 880.667 513.435C866.228 525.522 847.785 527.94 834.923 527.94Z" fill="black"/>
<path d="M778.865 520.687C777.409 520.687 776.317 519.536 776.317 518.27L776.439 510.442C776.439 509.06 777.652 508.024 778.987 508.024C780.443 508.024 781.535 509.175 781.535 510.442L781.414 518.27C781.414 519.536 780.322 520.687 778.865 520.687Z" fill="black"/>
<path d="M881.032 519.766C879.576 519.766 878.362 518.615 878.483 517.234L878.726 510.327C878.726 508.945 879.697 507.794 881.396 508.024C882.852 508.024 883.944 509.175 883.823 510.557L883.58 517.464C883.58 518.73 882.366 519.766 881.032 519.766Z" fill="black"/>
<path d="M914.399 413.626C912.579 413.396 911.608 412.129 911.851 410.863C917.554 376.442 912.094 355.145 906.148 338.913C893.529 304.838 840.869 297.47 807.379 302.996C782.02 307.255 768.066 326.595 767.945 326.825C767.581 327.401 766.974 327.746 766.367 327.862C761.635 328.782 757.51 330.74 754.234 333.502C753.142 334.423 751.564 334.308 750.593 333.272C749.623 332.236 749.744 330.74 750.836 329.819C754.598 326.71 759.087 324.523 764.305 323.257C767.338 319.343 781.899 302.305 806.53 298.161C841.718 292.29 897.412 300.578 911.002 337.301C917.19 354.109 922.771 376.097 916.947 411.554C916.704 412.705 915.612 413.626 914.399 413.626Z" fill="black"/>
<path d="M745.134 413.511C744.042 413.511 742.95 412.82 742.707 411.784C742.464 410.978 736.519 390.372 736.64 369.074C736.64 367.693 737.853 366.657 739.188 366.657C740.644 366.657 741.736 367.808 741.736 369.074C741.494 389.681 747.56 410.287 747.56 410.518C747.924 411.784 747.196 413.165 745.74 413.511C745.619 413.511 745.376 413.511 745.134 413.511Z" fill="black"/>
<path d="M612.633 1102.39C610.934 1102.27 609.963 1101.01 610.084 1099.74L614.817 1056.34C614.938 1054.96 616.03 1053.92 617.607 1054.15C619.063 1054.27 620.034 1055.53 619.913 1056.8L615.181 1100.2C615.059 1101.47 613.967 1102.39 612.633 1102.39Z" fill="black"/>
<path d="M643.938 828.979C642.239 828.748 641.269 827.597 641.39 826.216L658.135 703.152C658.256 701.886 659.591 700.85 661.047 701.08C662.503 701.195 663.474 702.462 663.231 703.843L646.486 826.907C646.365 828.173 645.273 828.979 643.938 828.979Z" fill="black"/>
<path d="M1027.24 1102.39C1025.91 1102.39 1024.82 1101.47 1024.7 1100.2C1007.22 924.989 994.118 820.69 986.11 764.051C985.867 762.67 986.959 761.518 988.294 761.288C989.75 761.173 990.963 762.094 991.206 763.36C999.214 819.999 1012.44 924.413 1029.91 1099.74C1030.03 1101.12 1029.06 1102.27 1027.61 1102.39C1027.36 1102.39 1027.24 1102.39 1027.24 1102.39Z" fill="black"/>
<path d="M776.196 405.682C775.953 405.682 775.589 405.682 775.346 405.567C774.012 405.107 773.284 403.725 773.769 402.459C778.38 390.487 795.852 387.033 806.288 389.22C807.622 389.566 808.472 390.832 808.229 392.098C807.986 393.365 806.651 394.286 805.195 393.94C796.702 392.098 782.02 395.207 778.623 404.071C778.259 405.107 777.288 405.682 776.196 405.682Z" fill="black"/>
<path d="M878.969 405.682C877.877 405.682 876.907 405.107 876.543 404.071C873.145 395.207 858.463 392.098 849.969 393.94C848.513 394.171 847.179 393.365 846.936 392.098C846.572 390.832 847.543 389.451 848.877 389.22C859.312 387.033 876.785 390.487 881.396 402.459C881.881 403.725 881.153 405.107 879.819 405.567C879.576 405.682 879.333 405.682 878.969 405.682Z" fill="black"/>
<path d="M774.983 340.64C774.133 340.64 773.405 340.294 772.92 339.604L764.669 328.552C763.82 327.516 764.184 325.904 765.276 325.214C766.368 324.408 768.066 324.638 768.794 325.789L777.045 336.841C777.895 337.877 777.531 339.489 776.439 340.179C775.953 340.525 775.468 340.64 774.983 340.64Z" fill="black"/>
<path d="M1053.09 621.532C1052.36 621.532 1051.63 621.187 1051.15 620.611C1003.95 567.081 954.441 556.72 916.583 553.727C915.127 553.612 914.157 552.461 914.278 551.079C914.399 549.698 915.491 548.777 917.069 548.892C955.897 552 1006.74 562.476 1055.15 617.503C1056 618.539 1055.88 620.036 1054.79 620.957C1054.3 621.417 1053.69 621.532 1053.09 621.532Z" fill="black"/>
<path d="M193.291 687.266H125.342C120.124 687.266 116.241 685.424 114.3 682.201C112.359 678.977 112.723 674.833 115.271 670.574L149.124 615.546C154.341 607.027 164.291 607.027 169.509 615.546L203.362 670.574C206.031 674.833 206.274 678.977 204.333 682.201C202.391 685.424 198.508 687.266 193.291 687.266ZM159.316 613.819C157.254 613.819 155.191 615.316 153.492 617.964L119.639 672.991C118.062 675.639 117.698 678.056 118.668 679.783C119.639 681.395 122.066 682.431 125.342 682.431H193.291C196.567 682.431 198.994 681.51 199.964 679.783C200.935 678.172 200.571 675.639 198.994 672.991L165.14 617.964C163.442 615.316 161.379 613.819 159.316 613.819Z" fill="black"/>
<path d="M976.524 739.761C968.759 739.761 962.449 738.494 957.717 735.847C953.106 733.314 950.073 729.515 948.859 724.68C944.612 708.448 965.968 697.281 966.817 696.821C968.03 696.245 969.608 696.591 970.336 697.742C971.064 698.893 970.579 700.39 969.365 701.08C969.123 701.195 950.679 710.981 953.834 723.529C954.805 727.097 956.867 729.745 960.386 731.702C968.88 736.422 984.29 736.077 1003.95 730.781C1031 723.529 1080.39 700.044 1080.87 699.814C1082.09 699.238 1083.67 699.699 1084.27 700.85C1084.88 702.001 1084.39 703.498 1083.18 704.073C1081.12 704.994 1032.95 727.903 1005.28 735.271C994.482 738.264 984.775 739.761 976.524 739.761Z" fill="black"/>
<path d="M996.18 763.821C987.444 763.821 980.285 762.324 976.038 758.87C961.235 747.013 969.001 735.846 969.001 735.731C969.729 734.58 971.427 734.35 972.52 735.041C973.733 735.731 973.976 737.228 973.248 738.379C973.005 738.84 968.151 746.322 979.314 755.187C991.084 764.511 1036.95 755.762 1075.66 736.883C1096.53 726.637 1113.76 714.089 1126.86 699.584C1139.48 685.654 1144.33 666.084 1140.69 644.787C1137.42 625.562 1128.56 607.603 1115.09 592.637C1113.88 591.256 1112.54 589.874 1111.33 588.608C1105.02 581.931 1099.07 575.715 1098.23 565.814C1097.86 561.555 1097.74 556.835 1097.62 551.885C1097.01 533.005 1096.41 511.708 1082.82 508.485C1073.96 506.413 1066.43 508.139 1060.97 513.435C1051.02 522.99 1049.33 542.56 1056.24 567.196C1058.67 575.6 1061.22 584.003 1063.89 592.407L1066.8 601.732C1067.53 603.919 1068.38 607.027 1067.16 609.905C1066.31 611.862 1064.74 613.359 1063.16 614.625C1046.29 627.979 1027 638.34 1005.77 645.362C977.13 654.802 960.264 665.048 955.654 675.869C953.591 680.589 953.955 685.309 956.503 690.259C957.716 692.561 960.264 694.288 964.269 695.439C981.499 700.62 1024.82 693.022 1071.17 668.732C1072.38 668.041 1073.96 668.501 1074.69 669.653C1075.41 670.804 1074.93 672.3 1073.72 672.991C1031.25 695.094 984.653 706.491 962.813 700.044C957.474 698.432 953.834 695.9 952.013 692.331C948.737 686.115 948.373 679.898 950.921 673.912C956.26 661.594 973.612 650.658 1004.07 640.642C1024.69 633.85 1043.5 623.835 1059.88 610.711C1060.97 609.79 1062.07 608.984 1062.43 607.948C1063.04 606.682 1062.55 604.84 1061.95 602.883L1059.03 593.558C1056.36 585.155 1053.82 576.636 1051.39 568.232C1043.99 541.985 1046.17 520.687 1057.46 509.866C1064.13 503.419 1073.59 501.232 1084.15 503.65C1101.5 507.679 1102.23 531.048 1102.84 551.54C1102.96 556.375 1103.08 560.979 1103.44 565.124C1104.17 573.412 1109.27 578.823 1115.21 585.039C1116.55 586.421 1117.76 587.687 1119.1 589.184C1133.17 604.725 1142.39 623.605 1145.79 643.635C1149.67 666.429 1144.45 687.381 1130.74 702.462C1117.28 717.427 1099.44 730.436 1077.96 740.912C1051.39 754.266 1018.26 763.821 996.18 763.821Z" fill="black"/>
<path d="M757.753 475.1H675.243C673.787 475.1 672.695 474.064 672.695 472.682C672.695 471.301 673.787 470.265 675.243 470.265H757.753C759.209 470.265 760.301 471.301 760.301 472.682C760.301 474.064 759.209 475.1 757.753 475.1Z" fill="black"/>
<path d="M898.626 298.276C897.169 298.276 896.077 297.24 896.077 295.858V69.6475C896.077 33.9604 865.5 4.83504 827.765 4.83504H255.294C217.679 4.83504 186.981 33.8453 186.981 69.6475V175.097C186.981 176.479 185.889 177.515 184.433 177.515C182.977 177.515 181.885 176.479 181.885 175.097V69.6475C182.006 31.1975 214.889 0 255.294 0H827.765C868.291 0 901.174 31.1975 901.174 69.6475V295.858C901.174 297.24 900.082 298.276 898.626 298.276Z" fill="black"/>
<path d="M381.728 475.1H255.294C214.767 475.1 181.885 443.902 181.885 405.452C181.885 404.071 182.977 403.035 184.433 403.035C185.889 403.035 186.981 404.071 186.981 405.452C186.981 441.14 217.558 470.265 255.294 470.265H381.606C383.062 470.265 384.154 471.301 384.154 472.682C384.154 474.064 383.062 475.1 381.728 475.1Z" fill="black"/>
<path d="M1485.9 926.255H1199.91C1198.45 926.255 1197.36 925.219 1197.36 923.837C1197.36 922.456 1198.45 921.42 1199.91 921.42H1485.78C1518.17 921.42 1544.63 896.439 1544.63 865.587V662.515C1544.63 661.134 1545.72 660.098 1547.17 660.098C1548.63 660.098 1549.72 661.134 1549.72 662.515V865.702C1549.84 899.087 1521.09 926.255 1485.9 926.255Z" fill="black"/>
<path d="M1547.3 564.433C1545.84 564.433 1544.75 563.397 1544.75 562.016V540.603C1544.75 509.866 1518.42 484.77 1485.9 484.77H1027.49C995.089 484.77 968.637 509.751 968.637 540.603V560.519C968.637 561.9 967.545 562.937 966.089 562.937C964.633 562.937 963.541 561.9 963.541 560.519V540.603C963.541 507.218 992.177 479.935 1027.49 479.935H1485.9C1521.09 479.935 1549.84 507.103 1549.84 540.603V562.016C1549.84 563.282 1548.63 564.433 1547.3 564.433Z" fill="black"/>
<path d="M816.237 1059.91H163.32C128.132 1059.91 99.3755 1032.74 99.3755 999.241V887.69C99.3755 854.305 128.011 827.021 163.32 827.021H365.59C367.046 827.021 368.138 828.058 368.138 829.439C368.138 830.82 367.046 831.856 365.59 831.856H163.32C130.923 831.856 104.472 856.837 104.472 887.69V999.241C104.472 1029.98 130.802 1055.07 163.32 1055.07H816.237C848.634 1055.07 875.086 1030.09 875.086 999.241V887.69C875.086 856.953 848.756 831.856 816.237 831.856H553.906C552.45 831.856 551.358 830.82 551.358 829.439C551.358 828.058 552.45 827.021 553.906 827.021H816.116C851.304 827.021 880.061 854.19 880.061 887.69V999.241C880.061 1032.74 851.425 1059.91 816.237 1059.91Z" fill="black"/>
<path d="M530.124 361.707C529.032 361.707 528.061 361.131 527.697 360.095C527.09 358.599 513.743 322.106 539.224 303.111C553.421 292.635 570.529 293.095 588.73 293.556C603.169 293.901 619.55 294.362 636.658 289.412C649.763 285.613 663.716 279.741 677.185 274.101C704.971 262.358 729.117 252.228 742.586 260.977C748.895 265.006 750.958 272.719 748.167 281.583C741.251 303.917 707.155 328.898 648.549 330.624C647.214 330.624 646.001 329.588 645.88 328.322C645.88 326.941 646.972 325.905 648.306 325.789C712.858 323.832 738.703 295.168 743.192 280.202C745.255 273.295 744.042 267.769 739.552 264.891C728.511 257.754 704.486 267.769 679.126 278.475C665.536 284.231 651.461 290.102 637.993 294.016C620.035 299.197 603.29 298.736 588.366 298.391C570.408 297.93 554.755 297.47 542.136 306.91C519.567 323.717 532.065 358.023 532.308 358.368C532.793 359.635 532.065 361.016 530.73 361.477C530.73 361.707 530.366 361.707 530.124 361.707Z" fill="black"/>
<path d="M666.992 352.727C661.411 352.727 655.829 352.497 650.126 352.152C648.67 352.037 647.699 350.885 647.821 349.504C647.942 348.123 648.913 347.087 650.612 347.317C702.301 351.001 747.682 336.611 756.175 313.817C758.602 307.14 758.602 301.844 755.932 298.045C751.686 292.059 742.221 291.368 742.221 291.368C740.765 291.253 739.673 290.102 739.795 288.836C739.916 287.454 741.129 286.533 742.464 286.533C742.949 286.533 754.598 287.339 760.179 295.283C763.819 300.463 764.062 307.14 761.029 315.313C752.414 337.877 714.192 352.727 666.992 352.727Z" fill="black"/>
<path d="M588.608 385.076C587.274 385.076 586.182 384.04 586.06 382.774C585.939 381.392 587.031 380.356 588.487 380.241C633.746 377.939 639.206 336.035 639.327 335.69C639.449 334.308 640.662 333.502 642.118 333.502C643.574 333.618 644.545 334.884 644.424 336.15C644.424 336.611 638.357 382.544 588.851 385.076C588.608 385.076 588.608 385.076 588.608 385.076Z" fill="black"/>
<path d="M657.649 484.77C655.587 484.77 653.645 484.425 651.704 483.849C636.415 479.014 626.83 456.335 623.432 446.78C620.641 439.067 608.872 434.808 601.713 432.275C594.675 429.743 587.152 428.131 579.872 426.634C575.382 425.713 571.014 424.792 566.525 423.641C552.207 419.957 541.772 411.669 535.22 399.121C529.274 387.724 526.605 373.794 527.575 359.059C527.697 357.678 528.91 356.872 530.245 356.757C531.701 356.872 532.793 358.023 532.672 359.289C531.822 373.219 534.249 386.227 539.83 396.933C545.776 408.33 554.876 415.468 567.859 418.806C572.228 419.957 576.596 420.878 580.843 421.684C588.366 423.296 596.01 424.792 603.411 427.555C611.298 430.433 624.524 435.153 628.164 445.054C630.591 451.961 639.813 474.755 653.281 479.014C657.771 480.395 662.26 479.705 667.114 476.596C675.001 471.531 677.063 463.818 677.427 458.177C678.277 444.363 669.904 427.095 657.649 417.31C650.733 411.784 642.482 406.373 635.566 402.805C634.231 402.114 631.562 400.732 630.834 398.085C630.348 396.358 630.834 394.746 631.319 393.71C633.139 389.22 637.022 385.882 642.118 384.385C645.637 383.349 649.156 383.234 652.553 383.004C671.239 382.083 688.469 379.896 704.243 376.557C717.105 373.794 731.787 369.995 744.163 362.513C748.41 359.98 754.113 355.951 755.812 350.54C760.058 337.186 746.347 331.66 745.862 331.43C744.527 330.97 743.92 329.473 744.527 328.207C745.134 326.941 746.59 326.365 747.925 326.941C754.356 329.473 765.276 337.877 760.908 351.922C758.724 358.829 752.05 363.549 747.075 366.542C733.971 374.485 718.682 378.399 705.456 381.277C689.44 384.731 671.967 386.918 653.403 387.839C649.641 388.069 646.486 388.184 643.696 388.99C640.055 390.026 637.507 392.329 636.173 395.437C635.809 396.243 635.809 396.703 635.93 396.818C636.051 397.394 637.507 398.2 638.114 398.43C645.273 402.114 653.888 407.755 661.047 413.511C674.515 424.332 683.616 443.212 682.645 458.407C682.038 468.078 677.791 475.675 670.147 480.626C665.9 483.388 661.775 484.77 657.649 484.77Z" fill="black"/>
<path d="M196.324 721.111H122.429C96.4631 721.111 75.3503 701.08 75.3503 676.445V624.411C75.3503 599.775 96.4631 579.744 122.429 579.744H196.324C222.29 579.744 243.403 599.775 243.403 624.411V676.445C243.403 701.08 222.29 721.111 196.324 721.111ZM122.308 584.579C99.1325 584.579 80.3252 602.423 80.3252 624.411V676.445C80.3252 698.433 99.1325 716.276 122.308 716.276H196.202C219.378 716.276 238.185 698.433 238.185 676.445V624.411C238.185 602.423 219.378 584.579 196.202 584.579H122.308V584.579Z" fill="black"/>
<path d="M1306.93 263.394H1232.67C1220.66 263.394 1210.95 254.185 1210.95 242.788V172.334C1210.95 160.938 1220.66 151.728 1232.67 151.728H1306.93C1318.94 151.728 1328.65 160.938 1328.65 172.334V242.903C1328.65 254.185 1318.82 263.394 1306.93 263.394ZM1232.67 156.678C1223.57 156.678 1216.04 163.701 1216.04 172.45V242.903C1216.04 251.537 1223.45 258.674 1232.67 258.674H1306.93C1316.03 258.674 1323.55 251.652 1323.55 242.903V172.45C1323.55 163.816 1316.15 156.678 1306.93 156.678H1232.67V156.678Z" fill="black"/>
<path d="M1258.39 154.03C1257.3 154.03 1256.33 153.455 1255.97 152.419C1242.25 115.005 1218.84 89.1029 1186.56 75.4036C1141.42 56.4088 1079.66 62.2799 1003.34 93.0169C1002.13 93.5925 1000.55 93.0169 999.943 91.7506C999.337 90.4843 999.943 89.1029 1001.28 88.5273C1079.06 57.3298 1142.03 51.3435 1188.62 71.029C1221.87 84.9585 1246.87 112.587 1260.82 150.807C1261.3 152.073 1260.58 153.455 1259.24 153.915C1259 153.915 1258.63 154.03 1258.39 154.03Z" fill="black"/>
<path d="M976.281 127.898C960.507 127.898 947.767 115.695 947.767 100.845C947.767 85.8794 960.507 73.7918 976.281 73.7918C992.055 73.7918 1004.8 85.8794 1004.8 100.845C1004.8 115.695 992.055 127.898 976.281 127.898ZM976.281 78.5117C963.419 78.5117 952.863 88.5272 952.863 100.73C952.863 112.933 963.419 122.948 976.281 122.948C989.143 122.948 999.7 112.933 999.7 100.73C999.7 88.5272 989.265 78.5117 976.281 78.5117Z" fill="black"/>
<path d="M1269.8 234.614C1254.02 234.614 1241.28 222.527 1241.28 207.561C1241.28 192.596 1254.14 180.508 1269.8 180.508C1285.57 180.508 1298.31 192.596 1298.31 207.561C1298.31 222.527 1285.45 234.614 1269.8 234.614ZM1269.8 185.343C1256.94 185.343 1246.38 195.359 1246.38 207.561C1246.38 219.764 1256.94 229.779 1269.8 229.779C1282.66 229.779 1293.22 219.764 1293.22 207.561C1293.22 195.359 1282.66 185.343 1269.8 185.343Z" fill="black"/>
<path d="M1411.88 355.605C1389.19 355.605 1368.81 351.807 1350.85 344.324C1317.6 330.279 1292.61 302.65 1278.65 264.315C1278.17 263.049 1278.9 261.668 1280.23 261.207C1281.57 260.747 1283.02 261.437 1283.51 262.704C1297.22 300.233 1320.64 326.135 1352.91 339.834C1398.17 358.944 1459.81 352.958 1536.25 322.221C1537.47 321.645 1539.04 322.221 1539.65 323.487C1540.26 324.753 1539.65 326.135 1538.32 326.71C1490.39 346.051 1448.16 355.605 1411.88 355.605Z" fill="black"/>
<path d="M1563.19 341.561C1547.42 341.561 1534.68 329.473 1534.68 314.508C1534.68 299.542 1547.42 287.454 1563.19 287.454C1578.97 287.454 1591.71 299.542 1591.71 314.508C1591.71 329.473 1578.97 341.561 1563.19 341.561ZM1563.19 292.29C1550.33 292.29 1539.77 302.305 1539.77 314.508C1539.77 326.71 1550.33 336.726 1563.19 336.726C1576.05 336.726 1586.61 326.71 1586.61 314.508C1586.61 302.305 1576.17 292.29 1563.19 292.29Z" fill="black"/>
<path d="M718.318 915.203H342.9C341.444 915.203 340.352 914.167 340.352 912.786C340.352 911.404 341.444 910.368 342.9 910.368H718.318C719.774 910.368 720.866 911.404 720.866 912.786C720.866 914.167 719.774 915.203 718.318 915.203Z" fill="black"/>
<path d="M718.318 975.296H342.9C341.444 975.296 340.352 974.26 340.352 972.878C340.352 971.497 341.444 970.461 342.9 970.461H718.318C719.774 970.461 720.866 971.497 720.866 972.878C720.866 974.145 719.774 975.296 718.318 975.296Z" fill="black"/>
<path d="M212.34 984.966C188.194 984.966 168.537 966.317 168.537 943.408C168.537 920.499 188.194 901.849 212.34 901.849C236.486 901.849 256.143 920.499 256.143 943.408C256.143 966.432 236.486 984.966 212.34 984.966ZM212.34 906.8C190.985 906.8 173.755 923.262 173.755 943.408C173.755 963.669 191.106 980.016 212.34 980.016C233.696 980.016 250.926 963.554 250.926 943.408C251.047 923.262 233.696 906.8 212.34 906.8Z" fill="black"/>
<path d="M859.312 117.307H223.26C221.804 117.307 220.712 116.271 220.712 114.89C220.712 113.508 221.804 112.472 223.26 112.472H859.312C860.768 112.472 861.86 113.508 861.86 114.89C861.86 116.271 860.768 117.307 859.312 117.307Z" fill="black"/>
<path d="M818.907 85.9946C803.618 85.9946 791.12 74.2523 791.12 59.7472C791.12 45.2421 803.618 33.4999 818.907 33.4999C834.195 33.4999 846.572 45.2421 846.572 59.7472C846.693 74.2523 834.195 85.9946 818.907 85.9946ZM818.907 38.3349C806.409 38.3349 796.338 48.005 796.338 59.7472C796.338 71.6046 806.53 81.1595 818.907 81.1595C831.405 81.1595 841.476 71.4894 841.476 59.7472C841.476 47.8899 831.405 38.3349 818.907 38.3349Z" fill="black"/>
<path d="M751.631 76.6334C761.44 67.3274 761.44 52.2393 751.631 42.9333C741.823 33.6273 725.92 33.6273 716.111 42.9333C706.303 52.2393 706.303 67.3274 716.111 76.6334C725.92 85.9395 741.823 85.9395 751.631 76.6334Z" fill="#F5F5F5"/>
<path d="M733.849 85.9946C718.561 85.9946 706.184 74.2523 706.184 59.7472C706.184 45.2421 718.561 33.4999 733.849 33.4999C749.138 33.4999 761.514 45.2421 761.514 59.7472C761.635 74.2523 749.138 85.9946 733.849 85.9946ZM733.849 38.3349C721.351 38.3349 711.281 48.005 711.281 59.7472C711.281 71.6046 721.473 81.1595 733.849 81.1595C746.347 81.1595 756.418 71.4894 756.418 59.7472C756.539 47.8899 746.347 38.3349 733.849 38.3349Z" fill="black"/>
<path d="M648.913 85.9946C633.624 85.9946 621.126 74.2523 621.126 59.7472C621.126 45.2421 633.624 33.4999 648.913 33.4999C664.201 33.4999 676.578 45.2421 676.578 59.7472C676.578 74.2523 664.201 85.9946 648.913 85.9946ZM648.913 38.3349C636.415 38.3349 626.344 48.005 626.344 59.7472C626.344 71.6046 636.536 81.1595 648.913 81.1595C661.411 81.1595 671.482 71.4894 671.482 59.7472C671.482 47.8899 661.411 38.3349 648.913 38.3349Z" fill="black"/>
<path d="M577.324 617.849C576.474 617.849 575.625 617.503 575.14 616.697C574.412 615.546 574.776 614.05 575.989 613.359C576.717 612.898 652.674 567.887 740.765 551.885C742.1 551.655 743.435 552.461 743.799 553.842C744.041 555.108 743.192 556.375 741.736 556.72C654.616 572.606 579.508 617.158 578.78 617.618C578.294 617.733 577.809 617.849 577.324 617.849Z" fill="black"/>
<path d="M945.704 685.424H919.131C917.675 685.424 916.583 684.388 916.583 683.006C916.583 681.625 917.675 680.589 919.131 680.589H945.704C947.16 680.589 948.252 681.625 948.252 683.006C948.252 684.273 947.039 685.424 945.704 685.424ZM892.437 685.424H865.864C864.408 685.424 863.316 684.388 863.316 683.006C863.316 681.625 864.408 680.589 865.864 680.589H892.437C893.893 680.589 894.985 681.625 894.985 683.006C894.985 684.273 893.893 685.424 892.437 685.424ZM839.17 685.424H812.597C811.141 685.424 810.049 684.388 810.049 683.006C810.049 681.625 811.141 680.589 812.597 680.589H839.17C840.626 680.589 841.718 681.625 841.718 683.006C841.718 684.273 840.626 685.424 839.17 685.424ZM785.903 685.424H759.33C757.874 685.424 756.782 684.388 756.782 683.006C756.782 681.625 757.874 680.589 759.33 680.589H785.903C787.359 680.589 788.451 681.625 788.451 683.006C788.572 684.273 787.359 685.424 785.903 685.424ZM732.757 685.424H706.184C704.728 685.424 703.636 684.388 703.636 683.006C703.636 681.625 704.728 680.589 706.184 680.589H732.757C734.213 680.589 735.305 681.625 735.305 683.006C735.305 684.273 734.092 685.424 732.757 685.424ZM679.49 685.424H652.917C651.461 685.424 650.369 684.388 650.369 683.006C650.369 681.625 651.461 680.589 652.917 680.589H679.49C680.946 680.589 682.038 681.625 682.038 683.006C682.038 684.273 680.946 685.424 679.49 685.424ZM626.222 685.424H599.65C598.194 685.424 597.102 684.388 597.102 683.006C597.102 681.625 598.194 680.589 599.65 680.589H626.222C627.679 680.589 628.771 681.625 628.771 683.006C628.771 684.273 627.679 685.424 626.222 685.424ZM581.449 677.366C579.993 677.366 578.901 676.33 578.901 674.948V649.737C578.901 648.355 579.993 647.319 581.449 647.319C582.905 647.319 583.997 648.355 583.997 649.737V674.948C583.997 676.33 582.905 677.366 581.449 677.366ZM581.449 626.828C579.993 626.828 578.901 625.792 578.901 624.41V599.199C578.901 597.818 579.993 596.782 581.449 596.782C582.905 596.782 583.997 597.818 583.997 599.199V624.41C583.997 625.792 582.905 626.828 581.449 626.828ZM581.449 576.29C579.993 576.29 578.901 575.254 578.901 573.873V548.662C578.901 547.28 579.993 546.244 581.449 546.244C582.905 546.244 583.997 547.28 583.997 548.662V573.873C583.997 575.254 582.905 576.29 581.449 576.29ZM581.449 525.868C579.993 525.868 578.901 524.832 578.901 523.45V498.239C578.901 496.858 579.993 495.822 581.449 495.822C582.905 495.822 583.997 496.858 583.997 498.239V523.45C583.997 524.717 582.905 525.868 581.449 525.868ZM1072.62 484.31C1071.17 484.31 1070.08 483.273 1070.08 481.892V456.681C1070.08 455.299 1071.17 454.263 1072.62 454.263C1074.08 454.263 1075.17 455.299 1075.17 456.681V481.892C1075.17 483.273 1073.96 484.31 1072.62 484.31ZM581.449 475.33C579.993 475.33 578.901 474.294 578.901 472.913V447.701C578.901 446.32 579.993 445.284 581.449 445.284C582.905 445.284 583.997 446.32 583.997 447.701V472.913C583.997 474.294 582.905 475.33 581.449 475.33ZM1072.62 433.772C1071.17 433.772 1070.08 432.736 1070.08 431.354V406.143C1070.08 404.762 1071.17 403.726 1072.62 403.726C1074.08 403.726 1075.17 404.762 1075.17 406.143V431.354C1075.17 432.736 1073.96 433.772 1072.62 433.772ZM581.449 424.793C579.993 424.793 578.901 423.756 578.901 422.375V397.164C578.901 395.782 579.993 394.746 581.449 394.746C582.905 394.746 583.997 395.782 583.997 397.164V422.375C583.997 423.756 582.905 424.793 581.449 424.793ZM1072.62 383.234C1071.17 383.234 1070.08 382.198 1070.08 380.817V355.605C1070.08 354.224 1071.17 353.188 1072.62 353.188C1074.08 353.188 1075.17 354.224 1075.17 355.605V380.817C1075.17 382.198 1073.96 383.234 1072.62 383.234ZM581.449 374.255C579.993 374.255 578.901 373.219 578.901 371.837V346.626C578.901 345.245 579.993 344.209 581.449 344.209C582.905 344.209 583.997 345.245 583.997 346.626V371.837C583.997 373.219 582.905 374.255 581.449 374.255ZM1072.62 332.812C1071.17 332.812 1070.08 331.776 1070.08 330.394V321.415H1058.06C1056.61 321.415 1055.51 320.379 1055.51 318.997C1055.51 317.616 1056.61 316.58 1058.06 316.58H1072.62C1074.08 316.58 1075.17 317.616 1075.17 318.997V330.394C1075.17 331.66 1073.96 332.812 1072.62 332.812ZM581.449 323.832C579.993 323.832 578.901 322.796 578.901 321.415V318.882C578.901 317.501 579.993 316.465 581.449 316.465H605.474C606.93 316.465 608.022 317.501 608.022 318.882C608.022 320.264 606.93 321.3 605.474 321.3H583.997C583.997 322.681 582.905 323.832 581.449 323.832ZM1031.37 321.3H1004.8C1003.34 321.3 1002.25 320.264 1002.25 318.882C1002.25 317.501 1003.34 316.465 1004.8 316.465H1031.37C1032.82 316.465 1033.92 317.501 1033.92 318.882C1033.92 320.264 1032.82 321.3 1031.37 321.3ZM978.101 321.3H951.528C950.072 321.3 948.98 320.264 948.98 318.882C948.98 317.501 950.072 316.465 951.528 316.465H978.101C979.557 316.465 980.649 317.501 980.649 318.882C980.649 320.264 979.557 321.3 978.101 321.3ZM924.956 321.3H898.383C896.927 321.3 895.834 320.264 895.834 318.882C895.834 317.501 896.927 316.465 898.383 316.465H924.956C926.412 316.465 927.504 317.501 927.504 318.882C927.504 320.264 926.29 321.3 924.956 321.3ZM871.688 321.3H845.115C843.659 321.3 842.567 320.264 842.567 318.882C842.567 317.501 843.659 316.465 845.115 316.465H871.688C873.144 316.465 874.236 317.501 874.236 318.882C874.236 320.264 873.023 321.3 871.688 321.3ZM818.421 321.3H791.848C790.392 321.3 789.3 320.264 789.3 318.882C789.3 317.501 790.392 316.465 791.848 316.465H818.421C819.877 316.465 820.969 317.501 820.969 318.882C820.969 320.264 819.877 321.3 818.421 321.3ZM765.154 321.3H738.581C737.125 321.3 736.033 320.264 736.033 318.882C736.033 317.501 737.125 316.465 738.581 316.465H765.154C766.61 316.465 767.702 317.501 767.702 318.882C767.702 320.264 766.61 321.3 765.154 321.3ZM712.008 321.3H685.435C683.979 321.3 682.887 320.264 682.887 318.882C682.887 317.501 683.979 316.465 685.435 316.465H712.008C713.464 316.465 714.556 317.501 714.556 318.882C714.556 320.264 713.343 321.3 712.008 321.3ZM658.741 321.3H632.168C630.712 321.3 629.62 320.264 629.62 318.882C629.62 317.501 630.712 316.465 632.168 316.465H658.741C660.197 316.465 661.289 317.501 661.289 318.882C661.289 320.264 660.076 321.3 658.741 321.3Z" fill="black"/>
<path d="M903.722 409.251C903.115 409.251 902.509 409.021 902.023 408.561C852.881 364.93 795.61 354.569 784.204 352.958C781.535 360.21 771.221 385.767 757.389 398.085C756.297 399.006 754.719 398.891 753.749 397.97C752.778 396.933 752.899 395.437 753.87 394.516C768.794 381.277 779.957 349.849 779.957 349.504C780.321 348.468 781.414 347.777 782.627 347.892C783.234 348.008 849.484 355.49 905.421 405.107C906.391 406.028 906.513 407.524 905.542 408.561C905.057 409.021 904.45 409.251 903.722 409.251Z" fill="black"/>
<path d="M827.765 465.43C818.786 465.43 809.564 460.595 805.681 455.875C803.133 452.652 803.376 450.119 803.982 448.507C805.074 445.744 807.016 442.751 809.2 439.183C814.903 430.088 822.79 417.77 824.61 398.085C824.731 396.818 825.702 395.782 827.401 395.897C828.857 396.013 829.827 397.164 829.706 398.545C827.886 419.382 819.271 432.851 813.568 441.83C811.505 445.169 809.685 448.047 808.715 450.349C808.351 451.27 809.2 452.536 809.685 453.227C812.84 457.141 821.334 461.17 828.857 460.825C830.434 460.595 831.526 461.746 831.526 463.127C831.648 464.509 830.556 465.66 829.099 465.66C828.735 465.315 828.25 465.43 827.765 465.43Z" fill="black"/>
<path d="M829.706 803.076C828.25 803.076 827.158 802.04 827.158 800.659V623.259C827.158 621.878 828.25 620.842 829.706 620.842C831.162 620.842 832.254 621.878 832.254 623.259V800.659C832.254 802.04 831.041 803.076 829.706 803.076Z" fill="black"/>
<path d="M542.742 409.827C542.257 409.827 541.65 409.712 541.165 409.366C512.044 388.53 498.333 365.621 506.463 351.001C510.224 344.209 516.048 340.64 526.119 339.143C527.454 338.913 528.789 339.834 529.031 341.215C529.274 342.482 528.303 343.748 526.847 343.978C518.596 345.245 513.986 347.892 510.952 353.303C504.157 365.506 517.626 386.457 544.199 405.567C545.291 406.373 545.533 407.87 544.684 408.906C544.32 409.481 543.471 409.827 542.742 409.827Z" fill="black"/>
<path d="M622.219 443.097C605.475 441.024 587.881 435.153 567.981 425.253C566.768 424.677 565.554 423.987 564.341 423.411C563.128 422.72 562.642 421.339 563.37 420.073C564.098 418.921 565.554 418.461 566.889 419.152C568.103 419.727 569.195 420.418 570.408 420.994C589.701 430.664 606.809 436.305 622.583 438.262C624.039 438.492 625.01 439.643 624.767 441.024C624.646 442.291 623.554 443.097 622.219 443.097Z" fill="black"/>
<path d="M667.356 426.059C665.657 425.944 664.687 424.677 664.808 423.411C665.9 413.741 658.499 401.078 643.938 387.954C642.967 387.033 642.846 385.537 643.817 384.501C644.787 383.58 646.365 383.464 647.457 384.385C663.231 398.545 671.239 412.59 669.904 423.872C669.662 425.138 668.57 426.059 667.356 426.059Z" fill="black"/>
<path d="M853.852 483.964C852.638 483.964 851.667 483.158 851.303 482.122C850.697 479.82 846.207 459.328 858.098 456.45C863.194 455.184 866.349 456.911 868.048 458.407C872.416 462.437 872.416 470.265 871.081 475.791C870.717 477.057 869.504 477.863 868.048 477.632C866.713 477.287 865.864 476.021 866.106 474.754C867.198 470.15 867.077 464.279 864.529 461.976C864.165 461.631 862.83 460.364 859.433 461.17C853.852 462.437 855.065 475.1 856.4 481.086C856.764 482.352 855.793 483.734 854.458 483.964C854.216 483.964 853.973 483.964 853.852 483.964Z" fill="black"/>
<path d="M374.205 375.291C372.749 375.291 371.656 374.255 371.656 372.873V144.936C371.656 143.555 372.749 142.518 374.205 142.518C375.661 142.518 376.753 143.555 376.753 144.936V372.873C376.753 374.14 375.661 375.291 374.205 375.291Z" fill="black"/>
<path d="M874.358 432.16C873.751 432.045 853.488 427.325 853.488 427.325C852.517 427.095 851.789 426.404 851.546 425.368C851.425 424.447 851.789 423.526 852.639 422.951L870.718 410.978C871.931 410.287 873.509 410.518 874.237 411.554C875.086 412.705 874.722 414.201 873.63 414.892L860.162 423.756L874.843 427.21C876.178 427.555 877.028 428.822 876.664 430.203C876.542 431.47 875.571 432.16 874.358 432.16Z" fill="black"/>
</svg>
